<svg xmlns="http://www.w3.org/2000/svg" version="1.1" xmlns:xlink="http://www.w3.org/1999/xlink" xmlns:svgjs="http://svgjs.dev/svgjs" viewBox="0 0 800 800" opacity="1" width="800" height="800"><g stroke-width="3.25" stroke="hsl(300, 51%, 20%)" fill="none"><circle r="6.842105263157895" cx="0" cy="0" fill="hsl(300, 51%, 20%)" stroke="none" opacity="0.35"></circle><circle r="6.842105263157895" cx="44.44444444444444" cy="0" fill="hsl(300, 51%, 20%)" stroke="none" opacity="0.35"></circle><circle r="6.842105263157895" cx="88.88888888888889" cy="0" fill="hsl(300, 51%, 20%)" stroke="none" opacity="0.35"></circle><circle r="6.842105263157895" cx="133.33333333333331" cy="0" fill="hsl(300, 51%, 20%)" stroke="none" opacity="0.35"></circle><circle r="6.842105263157895" cx="177.77777777777777" cy="0" fill="hsl(300, 51%, 20%)" stroke="none" opacity="0.35"></circle><circle r="6.842105263157895" cx="222.22222222222223" cy="0" fill="hsl(300, 51%, 20%)" stroke="none" opacity="0.35"></circle><circle r="6.842105263157895" cx="266.6666666666667" cy="0" fill="hsl(300, 51%, 20%)" stroke="none" opacity="0.35"></circle><circle r="6.842105263157895" cx="311.11111111111114" cy="0" fill="hsl(300, 51%, 20%)" stroke="none" opacity="0.35"></circle><circle r="6.842105263157895" cx="355.5555555555556" cy="0" fill="hsl(300, 51%, 20%)" stroke="none" opacity="0.35"></circle><circle r="6.842105263157895" cx="400.00000000000006" cy="0" fill="hsl(300, 51%, 20%)" stroke="none" opacity="0.35"></circle><circle r="6.842105263157895" cx="444.4444444444445" cy="0" fill="hsl(300, 51%, 20%)" stroke="none" opacity="0.35"></circle><circle r="6.842105263157895" cx="488.88888888888897" cy="0" fill="hsl(300, 51%, 20%)" stroke="none" opacity="0.35"></circle><circle r="6.842105263157895" cx="533.3333333333334" cy="0" fill="hsl(300, 51%, 20%)" stroke="none" opacity="0.35"></circle><circle r="6.842105263157895" cx="577.7777777777778" cy="0" fill="hsl(300, 51%, 20%)" stroke="none" opacity="0.35"></circle><circle r="6.842105263157895" cx="622.2222222222223" cy="0" fill="hsl(300, 51%, 20%)" stroke="none" opacity="0.35"></circle><circle r="6.842105263157895" cx="666.6666666666667" cy="0" fill="hsl(300, 51%, 20%)" stroke="none" opacity="0.35"></circle><circle r="6.842105263157895" cx="711.1111111111112" cy="0" fill="hsl(300, 51%, 20%)" stroke="none" opacity="0.35"></circle><circle r="6.842105263157895" cx="755.5555555555557" cy="0" fill="hsl(300, 51%, 20%)" stroke="none" opacity="0.35"></circle><circle r="6.842105263157895" cx="800.0000000000001" cy="0" fill="hsl(300, 51%, 20%)" stroke="none" opacity="0.35"></circle><circle r="6.842105263157895" cx="0" cy="44.44444444444444" fill="hsl(300, 51%, 20%)" stroke="none" opacity="0.35"></circle><circle r="6.842105263157895" cx="44.44444444444444" cy="44.44444444444444" fill="hsl(300, 51%, 20%)" stroke="none"></circle><circle r="6.842105263157895" cx="88.88888888888889" cy="44.44444444444444" fill="hsl(300, 51%, 20%)" stroke="none" opacity="0.35"></circle><circle r="6.842105263157895" cx="133.33333333333331" cy="44.44444444444444" fill="hsl(300, 51%, 20%)" stroke="none" opacity="0.35"></circle><circle r="6.842105263157895" cx="177.77777777777777" cy="44.44444444444444" fill="hsl(300, 51%, 20%)" stroke="none" opacity="0.35"></circle><circle r="6.842105263157895" cx="222.22222222222223" cy="44.44444444444444" fill="hsl(300, 51%, 20%)" stroke="none" opacity="0.35"></circle><circle r="6.842105263157895" cx="266.6666666666667" cy="44.44444444444444" fill="hsl(300, 51%, 20%)" stroke="none"></circle><circle r="6.842105263157895" cx="311.11111111111114" cy="44.44444444444444" fill="hsl(300, 51%, 20%)" stroke="none" opacity="0.35"></circle><circle r="6.842105263157895" cx="355.5555555555556" cy="44.44444444444444" fill="hsl(300, 51%, 20%)" stroke="none" opacity="0.35"></circle><circle r="6.842105263157895" cx="400.00000000000006" cy="44.44444444444444" fill="hsl(300, 51%, 20%)" stroke="none"></circle><circle r="6.842105263157895" cx="444.4444444444445" cy="44.44444444444444" fill="hsl(300, 51%, 20%)" stroke="none" opacity="0.35"></circle><circle r="6.842105263157895" cx="488.88888888888897" cy="44.44444444444444" fill="hsl(300, 51%, 20%)" stroke="none" opacity="0.35"></circle><circle r="6.842105263157895" cx="533.3333333333334" cy="44.44444444444444" fill="hsl(300, 51%, 20%)" stroke="none" opacity="0.35"></circle><circle r="6.842105263157895" cx="577.7777777777778" cy="44.44444444444444" fill="hsl(300, 51%, 20%)" stroke="none" opacity="0.35"></circle><circle r="6.842105263157895" cx="622.2222222222223" cy="44.44444444444444" fill="hsl(300, 51%, 20%)" stroke="none" opacity="0.35"></circle><circle r="6.842105263157895" cx="666.6666666666667" cy="44.44444444444444" fill="hsl(300, 51%, 20%)" stroke="none"></circle><circle r="6.842105263157895" cx="711.1111111111112" cy="44.44444444444444" fill="hsl(300, 51%, 20%)" stroke="none" opacity="0.35"></circle><circle r="6.842105263157895" cx="755.5555555555557" cy="44.44444444444444" fill="hsl(300, 51%, 20%)" stroke="none" opacity="0.35"></circle><circle r="6.842105263157895" cx="800.0000000000001" cy="44.44444444444444" fill="hsl(300, 51%, 20%)" stroke="none" opacity="0.35"></circle><circle r="6.842105263157895" cx="0" cy="88.88888888888889" fill="hsl(300, 51%, 20%)" stroke="none" opacity="0.35"></circle><circle r="6.842105263157895" cx="44.44444444444444" cy="88.88888888888889" fill="hsl(300, 51%, 20%)" stroke="none" opacity="0.35"></circle><circle r="6.842105263157895" cx="88.88888888888889" cy="88.88888888888889" fill="hsl(300, 51%, 20%)" stroke="none"></circle><circle r="6.842105263157895" cx="133.33333333333331" cy="88.88888888888889" fill="hsl(300, 51%, 20%)" stroke="none" opacity="0.35"></circle><circle r="6.842105263157895" cx="177.77777777777777" cy="88.88888888888889" fill="hsl(300, 51%, 20%)" stroke="none" opacity="0.35"></circle><circle r="6.842105263157895" cx="222.22222222222223" cy="88.88888888888889" fill="hsl(300, 51%, 20%)" stroke="none" opacity="0.35"></circle><circle r="6.842105263157895" cx="266.6666666666667" cy="88.88888888888889" fill="hsl(300, 51%, 20%)" stroke="none" opacity="0.35"></circle><circle r="6.842105263157895" cx="311.11111111111114" cy="88.88888888888889" fill="hsl(300, 51%, 20%)" stroke="none" opacity="0.35"></circle><circle r="6.842105263157895" cx="355.5555555555556" cy="88.88888888888889" fill="hsl(300, 51%, 20%)" stroke="none"></circle><circle r="6.842105263157895" cx="400.00000000000006" cy="88.88888888888889" fill="hsl(300, 51%, 20%)" stroke="none"></circle><circle r="6.842105263157895" cx="444.4444444444445" cy="88.88888888888889" fill="hsl(300, 51%, 20%)" stroke="none"></circle><circle r="6.842105263157895" cx="488.88888888888897" cy="88.88888888888889" fill="hsl(300, 51%, 20%)" stroke="none" opacity="0.35"></circle><circle r="6.842105263157895" cx="533.3333333333334" cy="88.88888888888889" fill="hsl(300, 51%, 20%)" stroke="none" opacity="0.35"></circle><circle r="6.842105263157895" cx="577.7777777777778" cy="88.88888888888889" fill="hsl(300, 51%, 20%)" stroke="none" opacity="0.35"></circle><circle r="6.842105263157895" cx="622.2222222222223" cy="88.88888888888889" fill="hsl(300, 51%, 20%)" stroke="none" opacity="0.35"></circle><circle r="6.842105263157895" cx="666.6666666666667" cy="88.88888888888889" fill="hsl(300, 51%, 20%)" stroke="none"></circle><circle r="6.842105263157895" cx="711.1111111111112" cy="88.88888888888889" fill="hsl(300, 51%, 20%)" stroke="none"></circle><circle r="6.842105263157895" cx="755.5555555555557" cy="88.88888888888889" fill="hsl(300, 51%, 20%)" stroke="none" opacity="0.35"></circle><circle r="6.842105263157895" cx="800.0000000000001" cy="88.88888888888889" fill="hsl(300, 51%, 20%)" stroke="none" opacity="0.35"></circle><circle r="6.842105263157895" cx="0" cy="133.33333333333331" fill="hsl(300, 51%, 20%)" stroke="none" opacity="0.35"></circle><circle r="6.842105263157895" cx="44.44444444444444" cy="133.33333333333331" fill="hsl(300, 51%, 20%)" stroke="none" opacity="0.35"></circle><circle r="6.842105263157895" cx="88.88888888888889" cy="133.33333333333331" fill="hsl(300, 51%, 20%)" stroke="none" opacity="0.35"></circle><circle r="6.842105263157895" cx="133.33333333333331" cy="133.33333333333331" fill="hsl(300, 51%, 20%)" stroke="none"></circle><circle r="6.842105263157895" cx="177.77777777777777" cy="133.33333333333331" fill="hsl(300, 51%, 20%)" stroke="none" opacity="0.35"></circle><circle r="6.842105263157895" cx="222.22222222222223" cy="133.33333333333331" fill="hsl(300, 51%, 20%)" stroke="none" opacity="0.35"></circle><circle r="6.842105263157895" cx="266.6666666666667" cy="133.33333333333331" fill="hsl(300, 51%, 20%)" stroke="none" opacity="0.35"></circle><circle r="6.842105263157895" cx="311.11111111111114" cy="133.33333333333331" fill="hsl(300, 51%, 20%)" stroke="none" opacity="0.35"></circle><circle r="6.842105263157895" cx="355.5555555555556" cy="133.33333333333331" fill="hsl(300, 51%, 20%)" stroke="none"></circle><circle r="6.842105263157895" cx="400.00000000000006" cy="133.33333333333331" fill="hsl(300, 51%, 20%)" stroke="none" opacity="0.35"></circle><circle r="6.842105263157895" cx="444.4444444444445" cy="133.33333333333331" fill="hsl(300, 51%, 20%)" stroke="none" opacity="0.35"></circle><circle r="6.842105263157895" cx="488.88888888888897" cy="133.33333333333331" fill="hsl(300, 51%, 20%)" stroke="none" opacity="0.35"></circle><circle r="6.842105263157895" cx="533.3333333333334" cy="133.33333333333331" fill="hsl(300, 51%, 20%)" stroke="none" opacity="0.35"></circle><circle r="6.842105263157895" cx="577.7777777777778" cy="133.33333333333331" fill="hsl(300, 51%, 20%)" stroke="none"></circle><circle r="6.842105263157895" cx="622.2222222222223" cy="133.33333333333331" fill="hsl(300, 51%, 20%)" stroke="none" opacity="0.35"></circle><circle r="6.842105263157895" cx="666.6666666666667" cy="133.33333333333331" fill="hsl(300, 51%, 20%)" stroke="none"></circle><circle r="6.842105263157895" cx="711.1111111111112" cy="133.33333333333331" fill="hsl(300, 51%, 20%)" stroke="none" opacity="0.35"></circle><circle r="6.842105263157895" cx="755.5555555555557" cy="133.33333333333331" fill="hsl(300, 51%, 20%)" stroke="none" opacity="0.35"></circle><circle r="6.842105263157895" cx="800.0000000000001" cy="133.33333333333331" fill="hsl(300, 51%, 20%)" stroke="none" opacity="0.35"></circle><circle r="6.842105263157895" cx="0" cy="177.77777777777777" fill="hsl(300, 51%, 20%)" stroke="none" opacity="0.35"></circle><circle r="6.842105263157895" cx="44.44444444444444" cy="177.77777777777777" fill="hsl(300, 51%, 20%)" stroke="none" opacity="0.35"></circle><circle r="6.842105263157895" cx="88.88888888888889" cy="177.77777777777777" fill="hsl(300, 51%, 20%)" stroke="none" opacity="0.35"></circle><circle r="6.842105263157895" cx="133.33333333333331" cy="177.77777777777777" fill="hsl(300, 51%, 20%)" stroke="none" opacity="0.35"></circle><circle r="6.842105263157895" cx="177.77777777777777" cy="177.77777777777777" fill="hsl(300, 51%, 20%)" stroke="none" opacity="0.35"></circle><circle r="6.842105263157895" cx="222.22222222222223" cy="177.77777777777777" fill="hsl(300, 51%, 20%)" stroke="none" opacity="0.35"></circle><circle r="6.842105263157895" cx="266.6666666666667" cy="177.77777777777777" fill="hsl(300, 51%, 20%)" stroke="none"></circle><circle r="6.842105263157895" cx="311.11111111111114" cy="177.77777777777777" fill="hsl(300, 51%, 20%)" stroke="none" opacity="0.35"></circle><circle r="6.842105263157895" cx="355.5555555555556" cy="177.77777777777777" fill="hsl(300, 51%, 20%)" stroke="none" opacity="0.35"></circle><circle r="6.842105263157895" cx="400.00000000000006" cy="177.77777777777777" fill="hsl(300, 51%, 20%)" stroke="none" opacity="0.35"></circle><circle r="6.842105263157895" cx="444.4444444444445" cy="177.77777777777777" fill="hsl(300, 51%, 20%)" stroke="none"></circle><circle r="6.842105263157895" cx="488.88888888888897" cy="177.77777777777777" fill="hsl(300, 51%, 20%)" stroke="none" opacity="0.35"></circle><circle r="6.842105263157895" cx="533.3333333333334" cy="177.77777777777777" fill="hsl(300, 51%, 20%)" stroke="none"></circle><circle r="6.842105263157895" cx="577.7777777777778" cy="177.77777777777777" fill="hsl(300, 51%, 20%)" stroke="none" opacity="0.35"></circle><circle r="6.842105263157895" cx="622.2222222222223" cy="177.77777777777777" fill="hsl(300, 51%, 20%)" stroke="none" opacity="0.35"></circle><circle r="6.842105263157895" cx="666.6666666666667" cy="177.77777777777777" fill="hsl(300, 51%, 20%)" stroke="none" opacity="0.35"></circle><circle r="6.842105263157895" cx="711.1111111111112" cy="177.77777777777777" fill="hsl(300, 51%, 20%)" stroke="none" opacity="0.35"></circle><circle r="6.842105263157895" cx="755.5555555555557" cy="177.77777777777777" fill="hsl(300, 51%, 20%)" stroke="none" opacity="0.35"></circle><circle r="6.842105263157895" cx="800.0000000000001" cy="177.77777777777777" fill="hsl(300, 51%, 20%)" stroke="none" opacity="0.35"></circle><circle r="6.842105263157895" cx="0" cy="222.22222222222223" fill="hsl(300, 51%, 20%)" stroke="none" opacity="0.35"></circle><circle r="6.842105263157895" cx="44.44444444444444" cy="222.22222222222223" fill="hsl(300, 51%, 20%)" stroke="none" opacity="0.35"></circle><circle r="6.842105263157895" cx="88.88888888888889" cy="222.22222222222223" fill="hsl(300, 51%, 20%)" stroke="none" opacity="0.35"></circle><circle r="6.842105263157895" cx="133.33333333333331" cy="222.22222222222223" fill="hsl(300, 51%, 20%)" stroke="none" opacity="0.35"></circle><circle r="6.842105263157895" cx="177.77777777777777" cy="222.22222222222223" fill="hsl(300, 51%, 20%)" stroke="none" opacity="0.35"></circle><circle r="6.842105263157895" cx="222.22222222222223" cy="222.22222222222223" fill="hsl(300, 51%, 20%)" stroke="none" opacity="0.35"></circle><circle r="6.842105263157895" cx="266.6666666666667" cy="222.22222222222223" fill="hsl(300, 51%, 20%)" stroke="none"></circle><circle r="6.842105263157895" cx="311.11111111111114" cy="222.22222222222223" fill="hsl(300, 51%, 20%)" stroke="none" opacity="0.35"></circle><circle r="6.842105263157895" cx="355.5555555555556" cy="222.22222222222223" fill="hsl(300, 51%, 20%)" stroke="none" opacity="0.35"></circle><circle r="6.842105263157895" cx="400.00000000000006" cy="222.22222222222223" fill="hsl(300, 51%, 20%)" stroke="none" opacity="0.35"></circle><circle r="6.842105263157895" cx="444.4444444444445" cy="222.22222222222223" fill="hsl(300, 51%, 20%)" stroke="none" opacity="0.35"></circle><circle r="6.842105263157895" cx="488.88888888888897" cy="222.22222222222223" fill="hsl(300, 51%, 20%)" stroke="none" opacity="0.35"></circle><circle r="6.842105263157895" cx="533.3333333333334" cy="222.22222222222223" fill="hsl(300, 51%, 20%)" stroke="none" opacity="0.35"></circle><circle r="6.842105263157895" cx="577.7777777777778" cy="222.22222222222223" fill="hsl(300, 51%, 20%)" stroke="none" opacity="0.35"></circle><circle r="6.842105263157895" cx="622.2222222222223" cy="222.22222222222223" fill="hsl(300, 51%, 20%)" stroke="none" opacity="0.35"></circle><circle r="6.842105263157895" cx="666.6666666666667" cy="222.22222222222223" fill="hsl(300, 51%, 20%)" stroke="none" opacity="0.35"></circle><circle r="6.842105263157895" cx="711.1111111111112" cy="222.22222222222223" fill="hsl(300, 51%, 20%)" stroke="none" opacity="0.35"></circle><circle r="6.842105263157895" cx="755.5555555555557" cy="222.22222222222223" fill="hsl(300, 51%, 20%)" stroke="none" opacity="0.35"></circle><circle r="6.842105263157895" cx="800.0000000000001" cy="222.22222222222223" fill="hsl(300, 51%, 20%)" stroke="none" opacity="0.35"></circle><circle r="6.842105263157895" cx="0" cy="266.6666666666667" fill="hsl(300, 51%, 20%)" stroke="none" opacity="0.35"></circle><circle r="6.842105263157895" cx="44.44444444444444" cy="266.6666666666667" fill="hsl(300, 51%, 20%)" stroke="none"></circle><circle r="6.842105263157895" cx="88.88888888888889" cy="266.6666666666667" fill="hsl(300, 51%, 20%)" stroke="none" opacity="0.35"></circle><circle r="6.842105263157895" cx="133.33333333333331" cy="266.6666666666667" fill="hsl(300, 51%, 20%)" stroke="none" opacity="0.35"></circle><circle r="6.842105263157895" cx="177.77777777777777" cy="266.6666666666667" fill="hsl(300, 51%, 20%)" stroke="none" opacity="0.35"></circle><circle r="6.842105263157895" cx="222.22222222222223" cy="266.6666666666667" fill="hsl(300, 51%, 20%)" stroke="none"></circle><circle r="6.842105263157895" cx="266.6666666666667" cy="266.6666666666667" fill="hsl(300, 51%, 20%)" stroke="none" opacity="0.35"></circle><circle r="6.842105263157895" cx="311.11111111111114" cy="266.6666666666667" fill="hsl(300, 51%, 20%)" stroke="none" opacity="0.35"></circle><circle r="6.842105263157895" cx="355.5555555555556" cy="266.6666666666667" fill="hsl(300, 51%, 20%)" stroke="none"></circle><circle r="6.842105263157895" cx="400.00000000000006" cy="266.6666666666667" fill="hsl(300, 51%, 20%)" stroke="none" opacity="0.35"></circle><circle r="6.842105263157895" cx="444.4444444444445" cy="266.6666666666667" fill="hsl(300, 51%, 20%)" stroke="none" opacity="0.35"></circle><circle r="6.842105263157895" cx="488.88888888888897" cy="266.6666666666667" fill="hsl(300, 51%, 20%)" stroke="none" opacity="0.35"></circle><circle r="6.842105263157895" cx="533.3333333333334" cy="266.6666666666667" fill="hsl(300, 51%, 20%)" stroke="none" opacity="0.35"></circle><circle r="6.842105263157895" cx="577.7777777777778" cy="266.6666666666667" fill="hsl(300, 51%, 20%)" stroke="none"></circle><circle r="6.842105263157895" cx="622.2222222222223" cy="266.6666666666667" fill="hsl(300, 51%, 20%)" stroke="none" opacity="0.35"></circle><circle r="6.842105263157895" cx="666.6666666666667" cy="266.6666666666667" fill="hsl(300, 51%, 20%)" stroke="none" opacity="0.35"></circle><circle r="6.842105263157895" cx="711.1111111111112" cy="266.6666666666667" fill="hsl(300, 51%, 20%)" stroke="none"></circle><circle r="6.842105263157895" cx="755.5555555555557" cy="266.6666666666667" fill="hsl(300, 51%, 20%)" stroke="none" opacity="0.35"></circle><circle r="6.842105263157895" cx="800.0000000000001" cy="266.6666666666667" fill="hsl(300, 51%, 20%)" stroke="none" opacity="0.35"></circle><circle r="6.842105263157895" cx="0" cy="311.11111111111114" fill="hsl(300, 51%, 20%)" stroke="none" opacity="0.35"></circle><circle r="6.842105263157895" cx="44.44444444444444" cy="311.11111111111114" fill="hsl(300, 51%, 20%)" stroke="none" opacity="0.35"></circle><circle r="6.842105263157895" cx="88.88888888888889" cy="311.11111111111114" fill="hsl(300, 51%, 20%)" stroke="none"></circle><circle r="6.842105263157895" cx="133.33333333333331" cy="311.11111111111114" fill="hsl(300, 51%, 20%)" stroke="none" opacity="0.35"></circle><circle r="6.842105263157895" cx="177.77777777777777" cy="311.11111111111114" fill="hsl(300, 51%, 20%)" stroke="none" opacity="0.35"></circle><circle r="6.842105263157895" cx="222.22222222222223" cy="311.11111111111114" fill="hsl(300, 51%, 20%)" stroke="none" opacity="0.35"></circle><circle r="6.842105263157895" cx="266.6666666666667" cy="311.11111111111114" fill="hsl(300, 51%, 20%)" stroke="none" opacity="0.35"></circle><circle r="6.842105263157895" cx="311.11111111111114" cy="311.11111111111114" fill="hsl(300, 51%, 20%)" stroke="none" opacity="0.35"></circle><circle r="6.842105263157895" cx="355.5555555555556" cy="311.11111111111114" fill="hsl(300, 51%, 20%)" stroke="none" opacity="0.35"></circle><circle r="6.842105263157895" cx="400.00000000000006" cy="311.11111111111114" fill="hsl(300, 51%, 20%)" stroke="none" opacity="0.35"></circle><circle r="6.842105263157895" cx="444.4444444444445" cy="311.11111111111114" fill="hsl(300, 51%, 20%)" stroke="none" opacity="0.35"></circle><circle r="6.842105263157895" cx="488.88888888888897" cy="311.11111111111114" fill="hsl(300, 51%, 20%)" stroke="none" opacity="0.35"></circle><circle r="6.842105263157895" cx="533.3333333333334" cy="311.11111111111114" fill="hsl(300, 51%, 20%)" stroke="none" opacity="0.35"></circle><circle r="6.842105263157895" cx="577.7777777777778" cy="311.11111111111114" fill="hsl(300, 51%, 20%)" stroke="none"></circle><circle r="6.842105263157895" cx="622.2222222222223" cy="311.11111111111114" fill="hsl(300, 51%, 20%)" stroke="none"></circle><circle r="6.842105263157895" cx="666.6666666666667" cy="311.11111111111114" fill="hsl(300, 51%, 20%)" stroke="none" opacity="0.35"></circle><circle r="6.842105263157895" cx="711.1111111111112" cy="311.11111111111114" fill="hsl(300, 51%, 20%)" stroke="none" opacity="0.35"></circle><circle r="6.842105263157895" cx="755.5555555555557" cy="311.11111111111114" fill="hsl(300, 51%, 20%)" stroke="none"></circle><circle r="6.842105263157895" cx="800.0000000000001" cy="311.11111111111114" fill="hsl(300, 51%, 20%)" stroke="none" opacity="0.35"></circle><circle r="6.842105263157895" cx="0" cy="355.5555555555556" fill="hsl(300, 51%, 20%)" stroke="none" opacity="0.35"></circle><circle r="6.842105263157895" cx="44.44444444444444" cy="355.5555555555556" fill="hsl(300, 51%, 20%)" stroke="none" opacity="0.35"></circle><circle r="6.842105263157895" cx="88.88888888888889" cy="355.5555555555556" fill="hsl(300, 51%, 20%)" stroke="none" opacity="0.35"></circle><circle r="6.842105263157895" cx="133.33333333333331" cy="355.5555555555556" fill="hsl(300, 51%, 20%)" stroke="none" opacity="0.35"></circle><circle r="6.842105263157895" cx="177.77777777777777" cy="355.5555555555556" fill="hsl(300, 51%, 20%)" stroke="none"></circle><circle r="6.842105263157895" cx="222.22222222222223" cy="355.5555555555556" fill="hsl(300, 51%, 20%)" stroke="none" opacity="0.35"></circle><circle r="6.842105263157895" cx="266.6666666666667" cy="355.5555555555556" fill="hsl(300, 51%, 20%)" stroke="none" opacity="0.35"></circle><circle r="6.842105263157895" cx="311.11111111111114" cy="355.5555555555556" fill="hsl(300, 51%, 20%)" stroke="none"></circle><circle r="6.842105263157895" cx="355.5555555555556" cy="355.5555555555556" fill="hsl(300, 51%, 20%)" stroke="none" opacity="0.35"></circle><circle r="6.842105263157895" cx="400.00000000000006" cy="355.5555555555556" fill="hsl(300, 51%, 20%)" stroke="none" opacity="0.35"></circle><circle r="6.842105263157895" cx="444.4444444444445" cy="355.5555555555556" fill="hsl(300, 51%, 20%)" stroke="none" opacity="0.35"></circle><circle r="6.842105263157895" cx="488.88888888888897" cy="355.5555555555556" fill="hsl(300, 51%, 20%)" stroke="none" opacity="0.35"></circle><circle r="6.842105263157895" cx="533.3333333333334" cy="355.5555555555556" fill="hsl(300, 51%, 20%)" stroke="none" opacity="0.35"></circle><circle r="6.842105263157895" cx="577.7777777777778" cy="355.5555555555556" fill="hsl(300, 51%, 20%)" stroke="none" opacity="0.35"></circle><circle r="6.842105263157895" cx="622.2222222222223" cy="355.5555555555556" fill="hsl(300, 51%, 20%)" stroke="none" opacity="0.35"></circle><circle r="6.842105263157895" cx="666.6666666666667" cy="355.5555555555556" fill="hsl(300, 51%, 20%)" stroke="none" opacity="0.35"></circle><circle r="6.842105263157895" cx="711.1111111111112" cy="355.5555555555556" fill="hsl(300, 51%, 20%)" stroke="none" opacity="0.35"></circle><circle r="6.842105263157895" cx="755.5555555555557" cy="355.5555555555556" fill="hsl(300, 51%, 20%)" stroke="none" opacity="0.35"></circle><circle r="6.842105263157895" cx="800.0000000000001" cy="355.5555555555556" fill="hsl(300, 51%, 20%)" stroke="none" opacity="0.35"></circle><circle r="6.842105263157895" cx="0" cy="400.00000000000006" fill="hsl(300, 51%, 20%)" stroke="none" opacity="0.35"></circle><circle r="6.842105263157895" cx="44.44444444444444" cy="400.00000000000006" fill="hsl(300, 51%, 20%)" stroke="none" opacity="0.35"></circle><circle r="6.842105263157895" cx="88.88888888888889" cy="400.00000000000006" fill="hsl(300, 51%, 20%)" stroke="none"></circle><circle r="6.842105263157895" cx="133.33333333333331" cy="400.00000000000006" fill="hsl(300, 51%, 20%)" stroke="none" opacity="0.35"></circle><circle r="6.842105263157895" cx="177.77777777777777" cy="400.00000000000006" fill="hsl(300, 51%, 20%)" stroke="none" opacity="0.35"></circle><circle r="6.842105263157895" cx="222.22222222222223" cy="400.00000000000006" fill="hsl(300, 51%, 20%)" stroke="none" opacity="0.35"></circle><circle r="6.842105263157895" cx="266.6666666666667" cy="400.00000000000006" fill="hsl(300, 51%, 20%)" stroke="none" opacity="0.35"></circle><circle r="6.842105263157895" cx="311.11111111111114" cy="400.00000000000006" fill="hsl(300, 51%, 20%)" stroke="none"></circle><circle r="6.842105263157895" cx="355.5555555555556" cy="400.00000000000006" fill="hsl(300, 51%, 20%)" stroke="none" opacity="0.35"></circle><circle r="6.842105263157895" cx="400.00000000000006" cy="400.00000000000006" fill="hsl(300, 51%, 20%)" stroke="none" opacity="0.35"></circle><circle r="6.842105263157895" cx="444.4444444444445" cy="400.00000000000006" fill="hsl(300, 51%, 20%)" stroke="none" opacity="0.35"></circle><circle r="6.842105263157895" cx="488.88888888888897" cy="400.00000000000006" fill="hsl(300, 51%, 20%)" stroke="none"></circle><circle r="6.842105263157895" cx="533.3333333333334" cy="400.00000000000006" fill="hsl(300, 51%, 20%)" stroke="none" opacity="0.35"></circle><circle r="6.842105263157895" cx="577.7777777777778" cy="400.00000000000006" fill="hsl(300, 51%, 20%)" stroke="none" opacity="0.35"></circle><circle r="6.842105263157895" cx="622.2222222222223" cy="400.00000000000006" fill="hsl(300, 51%, 20%)" stroke="none" opacity="0.35"></circle><circle r="6.842105263157895" cx="666.6666666666667" cy="400.00000000000006" fill="hsl(300, 51%, 20%)" stroke="none" opacity="0.35"></circle><circle r="6.842105263157895" cx="711.1111111111112" cy="400.00000000000006" fill="hsl(300, 51%, 20%)" stroke="none" opacity="0.35"></circle><circle r="6.842105263157895" cx="755.5555555555557" cy="400.00000000000006" fill="hsl(300, 51%, 20%)" stroke="none" opacity="0.35"></circle><circle r="6.842105263157895" cx="800.0000000000001" cy="400.00000000000006" fill="hsl(300, 51%, 20%)" stroke="none" opacity="0.35"></circle><circle r="6.842105263157895" cx="0" cy="444.4444444444445" fill="hsl(300, 51%, 20%)" stroke="none" opacity="0.35"></circle><circle r="6.842105263157895" cx="44.44444444444444" cy="444.4444444444445" fill="hsl(300, 51%, 20%)" stroke="none" opacity="0.35"></circle><circle r="6.842105263157895" cx="88.88888888888889" cy="444.4444444444445" fill="hsl(300, 51%, 20%)" stroke="none" opacity="0.35"></circle><circle r="6.842105263157895" cx="133.33333333333331" cy="444.4444444444445" fill="hsl(300, 51%, 20%)" stroke="none" opacity="0.35"></circle><circle r="6.842105263157895" cx="177.77777777777777" cy="444.4444444444445" fill="hsl(300, 51%, 20%)" stroke="none"></circle><circle r="6.842105263157895" cx="222.22222222222223" cy="444.4444444444445" fill="hsl(300, 51%, 20%)" stroke="none" opacity="0.35"></circle><circle r="6.842105263157895" cx="266.6666666666667" cy="444.4444444444445" fill="hsl(300, 51%, 20%)" stroke="none" opacity="0.35"></circle><circle r="6.842105263157895" cx="311.11111111111114" cy="444.4444444444445" fill="hsl(300, 51%, 20%)" stroke="none" opacity="0.35"></circle><circle r="6.842105263157895" cx="355.5555555555556" cy="444.4444444444445" fill="hsl(300, 51%, 20%)" stroke="none" opacity="0.35"></circle><circle r="6.842105263157895" cx="400.00000000000006" cy="444.4444444444445" fill="hsl(300, 51%, 20%)" stroke="none" opacity="0.35"></circle><circle r="6.842105263157895" cx="444.4444444444445" cy="444.4444444444445" fill="hsl(300, 51%, 20%)" stroke="none" opacity="0.35"></circle><circle r="6.842105263157895" cx="488.88888888888897" cy="444.4444444444445" fill="hsl(300, 51%, 20%)" stroke="none" opacity="0.35"></circle><circle r="6.842105263157895" cx="533.3333333333334" cy="444.4444444444445" fill="hsl(300, 51%, 20%)" stroke="none" opacity="0.35"></circle><circle r="6.842105263157895" cx="577.7777777777778" cy="444.4444444444445" fill="hsl(300, 51%, 20%)" stroke="none"></circle><circle r="6.842105263157895" cx="622.2222222222223" cy="444.4444444444445" fill="hsl(300, 51%, 20%)" stroke="none" opacity="0.35"></circle><circle r="6.842105263157895" cx="666.6666666666667" cy="444.4444444444445" fill="hsl(300, 51%, 20%)" stroke="none" opacity="0.35"></circle><circle r="6.842105263157895" cx="711.1111111111112" cy="444.4444444444445" fill="hsl(300, 51%, 20%)" stroke="none"></circle><circle r="6.842105263157895" cx="755.5555555555557" cy="444.4444444444445" fill="hsl(300, 51%, 20%)" stroke="none" opacity="0.35"></circle><circle r="6.842105263157895" cx="800.0000000000001" cy="444.4444444444445" fill="hsl(300, 51%, 20%)" stroke="none" opacity="0.35"></circle><circle r="6.842105263157895" cx="0" cy="488.88888888888897" fill="hsl(300, 51%, 20%)" stroke="none" opacity="0.35"></circle><circle r="6.842105263157895" cx="44.44444444444444" cy="488.88888888888897" fill="hsl(300, 51%, 20%)" stroke="none" opacity="0.35"></circle><circle r="6.842105263157895" cx="88.88888888888889" cy="488.88888888888897" fill="hsl(300, 51%, 20%)" stroke="none"></circle><circle r="6.842105263157895" cx="133.33333333333331" cy="488.88888888888897" fill="hsl(300, 51%, 20%)" stroke="none"></circle><circle r="6.842105263157895" cx="177.77777777777777" cy="488.88888888888897" fill="hsl(300, 51%, 20%)" stroke="none" opacity="0.35"></circle><circle r="6.842105263157895" cx="222.22222222222223" cy="488.88888888888897" fill="hsl(300, 51%, 20%)" stroke="none" opacity="0.35"></circle><circle r="6.842105263157895" cx="266.6666666666667" cy="488.88888888888897" fill="hsl(300, 51%, 20%)" stroke="none" opacity="0.35"></circle><circle r="6.842105263157895" cx="311.11111111111114" cy="488.88888888888897" fill="hsl(300, 51%, 20%)" stroke="none" opacity="0.35"></circle><circle r="6.842105263157895" cx="355.5555555555556" cy="488.88888888888897" fill="hsl(300, 51%, 20%)" stroke="none" opacity="0.35"></circle><circle r="6.842105263157895" cx="400.00000000000006" cy="488.88888888888897" fill="hsl(300, 51%, 20%)" stroke="none" opacity="0.35"></circle><circle r="6.842105263157895" cx="444.4444444444445" cy="488.88888888888897" fill="hsl(300, 51%, 20%)" stroke="none" opacity="0.35"></circle><circle r="6.842105263157895" cx="488.88888888888897" cy="488.88888888888897" fill="hsl(300, 51%, 20%)" stroke="none"></circle><circle r="6.842105263157895" cx="533.3333333333334" cy="488.88888888888897" fill="hsl(300, 51%, 20%)" stroke="none"></circle><circle r="6.842105263157895" cx="577.7777777777778" cy="488.88888888888897" fill="hsl(300, 51%, 20%)" stroke="none" opacity="0.35"></circle><circle r="6.842105263157895" cx="622.2222222222223" cy="488.88888888888897" fill="hsl(300, 51%, 20%)" stroke="none"></circle><circle r="6.842105263157895" cx="666.6666666666667" cy="488.88888888888897" fill="hsl(300, 51%, 20%)" stroke="none" opacity="0.35"></circle><circle r="6.842105263157895" cx="711.1111111111112" cy="488.88888888888897" fill="hsl(300, 51%, 20%)" stroke="none" opacity="0.35"></circle><circle r="6.842105263157895" cx="755.5555555555557" cy="488.88888888888897" fill="hsl(300, 51%, 20%)" stroke="none" opacity="0.35"></circle><circle r="6.842105263157895" cx="800.0000000000001" cy="488.88888888888897" fill="hsl(300, 51%, 20%)" stroke="none" opacity="0.35"></circle><circle r="6.842105263157895" cx="0" cy="533.3333333333334" fill="hsl(300, 51%, 20%)" stroke="none" opacity="0.35"></circle><circle r="6.842105263157895" cx="44.44444444444444" cy="533.3333333333334" fill="hsl(300, 51%, 20%)" stroke="none" opacity="0.35"></circle><circle r="6.842105263157895" cx="88.88888888888889" cy="533.3333333333334" fill="hsl(300, 51%, 20%)" stroke="none"></circle><circle r="6.842105263157895" cx="133.33333333333331" cy="533.3333333333334" fill="hsl(300, 51%, 20%)" stroke="none" opacity="0.35"></circle><circle r="6.842105263157895" cx="177.77777777777777" cy="533.3333333333334" fill="hsl(300, 51%, 20%)" stroke="none" opacity="0.35"></circle><circle r="6.842105263157895" cx="222.22222222222223" cy="533.3333333333334" fill="hsl(300, 51%, 20%)" stroke="none"></circle><circle r="6.842105263157895" cx="266.6666666666667" cy="533.3333333333334" fill="hsl(300, 51%, 20%)" stroke="none" opacity="0.35"></circle><circle r="6.842105263157895" cx="311.11111111111114" cy="533.3333333333334" fill="hsl(300, 51%, 20%)" stroke="none" opacity="0.35"></circle><circle r="6.842105263157895" cx="355.5555555555556" cy="533.3333333333334" fill="hsl(300, 51%, 20%)" stroke="none" opacity="0.35"></circle><circle r="6.842105263157895" cx="400.00000000000006" cy="533.3333333333334" fill="hsl(300, 51%, 20%)" stroke="none" opacity="0.35"></circle><circle r="6.842105263157895" cx="444.4444444444445" cy="533.3333333333334" fill="hsl(300, 51%, 20%)" stroke="none" opacity="0.35"></circle><circle r="6.842105263157895" cx="488.88888888888897" cy="533.3333333333334" fill="hsl(300, 51%, 20%)" stroke="none" opacity="0.35"></circle><circle r="6.842105263157895" cx="533.3333333333334" cy="533.3333333333334" fill="hsl(300, 51%, 20%)" stroke="none" opacity="0.35"></circle><circle r="6.842105263157895" cx="577.7777777777778" cy="533.3333333333334" fill="hsl(300, 51%, 20%)" stroke="none" opacity="0.35"></circle><circle r="6.842105263157895" cx="622.2222222222223" cy="533.3333333333334" fill="hsl(300, 51%, 20%)" stroke="none"></circle><circle r="6.842105263157895" cx="666.6666666666667" cy="533.3333333333334" fill="hsl(300, 51%, 20%)" stroke="none" opacity="0.35"></circle><circle r="6.842105263157895" cx="711.1111111111112" cy="533.3333333333334" fill="hsl(300, 51%, 20%)" stroke="none" opacity="0.35"></circle><circle r="6.842105263157895" cx="755.5555555555557" cy="533.3333333333334" fill="hsl(300, 51%, 20%)" stroke="none" opacity="0.35"></circle><circle r="6.842105263157895" cx="800.0000000000001" cy="533.3333333333334" fill="hsl(300, 51%, 20%)" stroke="none" opacity="0.35"></circle><circle r="6.842105263157895" cx="0" cy="577.7777777777778" fill="hsl(300, 51%, 20%)" stroke="none" opacity="0.35"></circle><circle r="6.842105263157895" cx="44.44444444444444" cy="577.7777777777778" fill="hsl(300, 51%, 20%)" stroke="none" opacity="0.35"></circle><circle r="6.842105263157895" cx="88.88888888888889" cy="577.7777777777778" fill="hsl(300, 51%, 20%)" stroke="none" opacity="0.35"></circle><circle r="6.842105263157895" cx="133.33333333333331" cy="577.7777777777778" fill="hsl(300, 51%, 20%)" stroke="none" opacity="0.35"></circle><circle r="6.842105263157895" cx="177.77777777777777" cy="577.7777777777778" fill="hsl(300, 51%, 20%)" stroke="none" opacity="0.35"></circle><circle r="6.842105263157895" cx="222.22222222222223" cy="577.7777777777778" fill="hsl(300, 51%, 20%)" stroke="none" opacity="0.35"></circle><circle r="6.842105263157895" cx="266.6666666666667" cy="577.7777777777778" fill="hsl(300, 51%, 20%)" stroke="none" opacity="0.35"></circle><circle r="6.842105263157895" cx="311.11111111111114" cy="577.7777777777778" fill="hsl(300, 51%, 20%)" stroke="none" opacity="0.35"></circle><circle r="6.842105263157895" cx="355.5555555555556" cy="577.7777777777778" fill="hsl(300, 51%, 20%)" stroke="none" opacity="0.35"></circle><circle r="6.842105263157895" cx="400.00000000000006" cy="577.7777777777778" fill="hsl(300, 51%, 20%)" stroke="none"></circle><circle r="6.842105263157895" cx="444.4444444444445" cy="577.7777777777778" fill="hsl(300, 51%, 20%)" stroke="none" opacity="0.35"></circle><circle r="6.842105263157895" cx="488.88888888888897" cy="577.7777777777778" fill="hsl(300, 51%, 20%)" stroke="none" opacity="0.35"></circle><circle r="6.842105263157895" cx="533.3333333333334" cy="577.7777777777778" fill="hsl(300, 51%, 20%)" stroke="none" opacity="0.35"></circle><circle r="6.842105263157895" cx="577.7777777777778" cy="577.7777777777778" fill="hsl(300, 51%, 20%)" stroke="none" opacity="0.35"></circle><circle r="6.842105263157895" cx="622.2222222222223" cy="577.7777777777778" fill="hsl(300, 51%, 20%)" stroke="none" opacity="0.35"></circle><circle r="6.842105263157895" cx="666.6666666666667" cy="577.7777777777778" fill="hsl(300, 51%, 20%)" stroke="none" opacity="0.35"></circle><circle r="6.842105263157895" cx="711.1111111111112" cy="577.7777777777778" fill="hsl(300, 51%, 20%)" stroke="none" opacity="0.35"></circle><circle r="6.842105263157895" cx="755.5555555555557" cy="577.7777777777778" fill="hsl(300, 51%, 20%)" stroke="none" opacity="0.35"></circle><circle r="6.842105263157895" cx="800.0000000000001" cy="577.7777777777778" fill="hsl(300, 51%, 20%)" stroke="none" opacity="0.35"></circle><circle r="6.842105263157895" cx="0" cy="622.2222222222223" fill="hsl(300, 51%, 20%)" stroke="none" opacity="0.35"></circle><circle r="6.842105263157895" cx="44.44444444444444" cy="622.2222222222223" fill="hsl(300, 51%, 20%)" stroke="none" opacity="0.35"></circle><circle r="6.842105263157895" cx="88.88888888888889" cy="622.2222222222223" fill="hsl(300, 51%, 20%)" stroke="none" opacity="0.35"></circle><circle r="6.842105263157895" cx="133.33333333333331" cy="622.2222222222223" fill="hsl(300, 51%, 20%)" stroke="none" opacity="0.35"></circle><circle r="6.842105263157895" cx="177.77777777777777" cy="622.2222222222223" fill="hsl(300, 51%, 20%)" stroke="none" opacity="0.35"></circle><circle r="6.842105263157895" cx="222.22222222222223" cy="622.2222222222223" fill="hsl(300, 51%, 20%)" stroke="none"></circle><circle r="6.842105263157895" cx="266.6666666666667" cy="622.2222222222223" fill="hsl(300, 51%, 20%)" stroke="none" opacity="0.35"></circle><circle r="6.842105263157895" cx="311.11111111111114" cy="622.2222222222223" fill="hsl(300, 51%, 20%)" stroke="none"></circle><circle r="6.842105263157895" cx="355.5555555555556" cy="622.2222222222223" fill="hsl(300, 51%, 20%)" stroke="none" opacity="0.35"></circle><circle r="6.842105263157895" cx="400.00000000000006" cy="622.2222222222223" fill="hsl(300, 51%, 20%)" stroke="none"></circle><circle r="6.842105263157895" cx="444.4444444444445" cy="622.2222222222223" fill="hsl(300, 51%, 20%)" stroke="none" opacity="0.35"></circle><circle r="6.842105263157895" cx="488.88888888888897" cy="622.2222222222223" fill="hsl(300, 51%, 20%)" stroke="none" opacity="0.35"></circle><circle r="6.842105263157895" cx="533.3333333333334" cy="622.2222222222223" fill="hsl(300, 51%, 20%)" stroke="none" opacity="0.35"></circle><circle r="6.842105263157895" cx="577.7777777777778" cy="622.2222222222223" fill="hsl(300, 51%, 20%)" stroke="none" opacity="0.35"></circle><circle r="6.842105263157895" cx="622.2222222222223" cy="622.2222222222223" fill="hsl(300, 51%, 20%)" stroke="none" opacity="0.35"></circle><circle r="6.842105263157895" cx="666.6666666666667" cy="622.2222222222223" fill="hsl(300, 51%, 20%)" stroke="none"></circle><circle r="6.842105263157895" cx="711.1111111111112" cy="622.2222222222223" fill="hsl(300, 51%, 20%)" stroke="none"></circle><circle r="6.842105263157895" cx="755.5555555555557" cy="622.2222222222223" fill="hsl(300, 51%, 20%)" stroke="none"></circle><circle r="6.842105263157895" cx="800.0000000000001" cy="622.2222222222223" fill="hsl(300, 51%, 20%)" stroke="none" opacity="0.35"></circle><circle r="6.842105263157895" cx="0" cy="666.6666666666667" fill="hsl(300, 51%, 20%)" stroke="none" opacity="0.35"></circle><circle r="6.842105263157895" cx="44.44444444444444" cy="666.6666666666667" fill="hsl(300, 51%, 20%)" stroke="none" opacity="0.35"></circle><circle r="6.842105263157895" cx="88.88888888888889" cy="666.6666666666667" fill="hsl(300, 51%, 20%)" stroke="none" opacity="0.35"></circle><circle r="6.842105263157895" cx="133.33333333333331" cy="666.6666666666667" fill="hsl(300, 51%, 20%)" stroke="none"></circle><circle r="6.842105263157895" cx="177.77777777777777" cy="666.6666666666667" fill="hsl(300, 51%, 20%)" stroke="none"></circle><circle r="6.842105263157895" cx="222.22222222222223" cy="666.6666666666667" fill="hsl(300, 51%, 20%)" stroke="none" opacity="0.35"></circle><circle r="6.842105263157895" cx="266.6666666666667" cy="666.6666666666667" fill="hsl(300, 51%, 20%)" stroke="none" opacity="0.35"></circle><circle r="6.842105263157895" cx="311.11111111111114" cy="666.6666666666667" fill="hsl(300, 51%, 20%)" stroke="none" opacity="0.35"></circle><circle r="6.842105263157895" cx="355.5555555555556" cy="666.6666666666667" fill="hsl(300, 51%, 20%)" stroke="none" opacity="0.35"></circle><circle r="6.842105263157895" cx="400.00000000000006" cy="666.6666666666667" fill="hsl(300, 51%, 20%)" stroke="none" opacity="0.35"></circle><circle r="6.842105263157895" cx="444.4444444444445" cy="666.6666666666667" fill="hsl(300, 51%, 20%)" stroke="none"></circle><circle r="6.842105263157895" cx="488.88888888888897" cy="666.6666666666667" fill="hsl(300, 51%, 20%)" stroke="none" opacity="0.35"></circle><circle r="6.842105263157895" cx="533.3333333333334" cy="666.6666666666667" fill="hsl(300, 51%, 20%)" stroke="none" opacity="0.35"></circle><circle r="6.842105263157895" cx="577.7777777777778" cy="666.6666666666667" fill="hsl(300, 51%, 20%)" stroke="none" opacity="0.35"></circle><circle r="6.842105263157895" cx="622.2222222222223" cy="666.6666666666667" fill="hsl(300, 51%, 20%)" stroke="none" opacity="0.35"></circle><circle r="6.842105263157895" cx="666.6666666666667" cy="666.6666666666667" fill="hsl(300, 51%, 20%)" stroke="none"></circle><circle r="6.842105263157895" cx="711.1111111111112" cy="666.6666666666667" fill="hsl(300, 51%, 20%)" stroke="none"></circle><circle r="6.842105263157895" cx="755.5555555555557" cy="666.6666666666667" fill="hsl(300, 51%, 20%)" stroke="none"></circle><circle r="6.842105263157895" cx="800.0000000000001" cy="666.6666666666667" fill="hsl(300, 51%, 20%)" stroke="none" opacity="0.35"></circle><circle r="6.842105263157895" cx="0" cy="711.1111111111112" fill="hsl(300, 51%, 20%)" stroke="none" opacity="0.35"></circle><circle r="6.842105263157895" cx="44.44444444444444" cy="711.1111111111112" fill="hsl(300, 51%, 20%)" stroke="none"></circle><circle r="6.842105263157895" cx="88.88888888888889" cy="711.1111111111112" fill="hsl(300, 51%, 20%)" stroke="none" opacity="0.35"></circle><circle r="6.842105263157895" cx="133.33333333333331" cy="711.1111111111112" fill="hsl(300, 51%, 20%)" stroke="none" opacity="0.35"></circle><circle r="6.842105263157895" cx="177.77777777777777" cy="711.1111111111112" fill="hsl(300, 51%, 20%)" stroke="none" opacity="0.35"></circle><circle r="6.842105263157895" cx="222.22222222222223" cy="711.1111111111112" fill="hsl(300, 51%, 20%)" stroke="none" opacity="0.35"></circle><circle r="6.842105263157895" cx="266.6666666666667" cy="711.1111111111112" fill="hsl(300, 51%, 20%)" stroke="none" opacity="0.35"></circle><circle r="6.842105263157895" cx="311.11111111111114" cy="711.1111111111112" fill="hsl(300, 51%, 20%)" stroke="none" opacity="0.35"></circle><circle r="6.842105263157895" cx="355.5555555555556" cy="711.1111111111112" fill="hsl(300, 51%, 20%)" stroke="none" opacity="0.35"></circle><circle r="6.842105263157895" cx="400.00000000000006" cy="711.1111111111112" fill="hsl(300, 51%, 20%)" stroke="none" opacity="0.35"></circle><circle r="6.842105263157895" cx="444.4444444444445" cy="711.1111111111112" fill="hsl(300, 51%, 20%)" stroke="none" opacity="0.35"></circle><circle r="6.842105263157895" cx="488.88888888888897" cy="711.1111111111112" fill="hsl(300, 51%, 20%)" stroke="none"></circle><circle r="6.842105263157895" cx="533.3333333333334" cy="711.1111111111112" fill="hsl(300, 51%, 20%)" stroke="none" opacity="0.35"></circle><circle r="6.842105263157895" cx="577.7777777777778" cy="711.1111111111112" fill="hsl(300, 51%, 20%)" stroke="none" opacity="0.35"></circle><circle r="6.842105263157895" cx="622.2222222222223" cy="711.1111111111112" fill="hsl(300, 51%, 20%)" stroke="none" opacity="0.35"></circle><circle r="6.842105263157895" cx="666.6666666666667" cy="711.1111111111112" fill="hsl(300, 51%, 20%)" stroke="none" opacity="0.35"></circle><circle r="6.842105263157895" cx="711.1111111111112" cy="711.1111111111112" fill="hsl(300, 51%, 20%)" stroke="none"></circle><circle r="6.842105263157895" cx="755.5555555555557" cy="711.1111111111112" fill="hsl(300, 51%, 20%)" stroke="none" opacity="0.35"></circle><circle r="6.842105263157895" cx="800.0000000000001" cy="711.1111111111112" fill="hsl(300, 51%, 20%)" stroke="none" opacity="0.35"></circle><circle r="6.842105263157895" cx="0" cy="755.5555555555557" fill="hsl(300, 51%, 20%)" stroke="none" opacity="0.35"></circle><circle r="6.842105263157895" cx="44.44444444444444" cy="755.5555555555557" fill="hsl(300, 51%, 20%)" stroke="none"></circle><circle r="6.842105263157895" cx="88.88888888888889" cy="755.5555555555557" fill="hsl(300, 51%, 20%)" stroke="none" opacity="0.35"></circle><circle r="6.842105263157895" cx="133.33333333333331" cy="755.5555555555557" fill="hsl(300, 51%, 20%)" stroke="none" opacity="0.35"></circle><circle r="6.842105263157895" cx="177.77777777777777" cy="755.5555555555557" fill="hsl(300, 51%, 20%)" stroke="none"></circle><circle r="6.842105263157895" cx="222.22222222222223" cy="755.5555555555557" fill="hsl(300, 51%, 20%)" stroke="none" opacity="0.35"></circle><circle r="6.842105263157895" cx="266.6666666666667" cy="755.5555555555557" fill="hsl(300, 51%, 20%)" stroke="none" opacity="0.35"></circle><circle r="6.842105263157895" cx="311.11111111111114" cy="755.5555555555557" fill="hsl(300, 51%, 20%)" stroke="none" opacity="0.35"></circle><circle r="6.842105263157895" cx="355.5555555555556" cy="755.5555555555557" fill="hsl(300, 51%, 20%)" stroke="none" opacity="0.35"></circle><circle r="6.842105263157895" cx="400.00000000000006" cy="755.5555555555557" fill="hsl(300, 51%, 20%)" stroke="none" opacity="0.35"></circle><circle r="6.842105263157895" cx="444.4444444444445" cy="755.5555555555557" fill="hsl(300, 51%, 20%)" stroke="none" opacity="0.35"></circle><circle r="6.842105263157895" cx="488.88888888888897" cy="755.5555555555557" fill="hsl(300, 51%, 20%)" stroke="none" opacity="0.35"></circle><circle r="6.842105263157895" cx="533.3333333333334" cy="755.5555555555557" fill="hsl(300, 51%, 20%)" stroke="none" opacity="0.35"></circle><circle r="6.842105263157895" cx="577.7777777777778" cy="755.5555555555557" fill="hsl(300, 51%, 20%)" stroke="none" opacity="0.35"></circle><circle r="6.842105263157895" cx="622.2222222222223" cy="755.5555555555557" fill="hsl(300, 51%, 20%)" stroke="none" opacity="0.35"></circle><circle r="6.842105263157895" cx="666.6666666666667" cy="755.5555555555557" fill="hsl(300, 51%, 20%)" stroke="none" opacity="0.35"></circle><circle r="6.842105263157895" cx="711.1111111111112" cy="755.5555555555557" fill="hsl(300, 51%, 20%)" stroke="none" opacity="0.35<svg xmlns="http://www.w3.org/2000/svg" version="1.1" xmlns:xlink="http://www.w3.org/1999/xlink" xmlns:svgjs="http://svgjs.dev/svgjs" viewBox="0 0 800 800"><defs><linearGradient x1="50%" y1="0%" x2="50%" y2="100%" id="ssscribble-grad"><stop stop-color="hsl(206, 75%, 49%)" stop-opacity="1" offset="0%"></stop><stop stop-color="hsl(331, 90%, 56%)" stop-opacity="1" offset="100%"></stop></linearGradient></defs><g fill="none" stroke-width="1.5" stroke="url(#ssscribble-grad)" stroke-linecap="round"><path d="M1089.69 288.34C1035.92 321.2 800.28 365.67 642.9 421.26 717.23 477.87 928.59 546.69 1059.17 625.57 993.64 702.46 787.85 782.55 606.31 856.06 559.52 910.66 654.09 940.95 796.37 936.13 907.17 900 917.08 831.19 839.74 742.82 703.71 665.65 562.58 614.92 449.23 614.38 359 674.75 304.01 785.8 269.01 920.48 244.82 1037.82 220.55 1100.02 187.69 1080.73 154.83 987.93 114.94 854.87 77.15 728.54 50.18 646.34 45.39 628.56 78.67 670.36 135.08 757.86 222.09 855.49 307.47 934.34 334.16 983.04 277.08 985.11 123.21 945.98 -62.13 873.98 -195.66 782.96 -183.09 688.36 -35.76 591.55 140.55 506.59 181.99 436.51 27.32 373.8 -202.73 323.5 -289.74 282.11 -145.05 243.66 83.92 208.88 137.69 176.02 -54.78 143.16 -265.23 113.77 -264.39 90.25 43.42 64.92 -84.38 94.49 -220.65 156.07 -106 200.02 89.67 243.88 248.67 272.81 310.13 268.88 266.98 227.86 175.09 144.95 69.26 31.89 6.27 -95.21 -5.77 -206.8 19.66 -272.69 73.61 -273.64 132.85 -204.13 200.25 -90.49 254.15 35.9 287.02 128.72 319.88 148.03 330.15 92.5 324.72 -12.13 327.45 -134.14 333.27 -226.5 364.77 -262.79 433.75 -238.18 550.85 -157.98 707.32 -46.6 849.86 75.97 940.22 183.75 921.86 262.96 805.94 310.85 649.21 327.75 568.75 323.8 649.9 300.94 857.97 274.97 1042.98 255.03 954.08 228.57 788.6 245.63 1089.66 288.33Q1089.69 288.34 1089.69 288.34" opacity="0.53"></path><path d="M1055.69 426.13C1014.43 456.64 801.72 499.29 625.2 552.17 637.01 604.3 810.34 664.54 981.64 728.2 1017.75 785.18 888.71 836.71 694.37 873.74 544.91 891.3 516.97 883.44 591.48 846.04 721.3 790.55 825.51 717.33 865.76 641.61 842.03 589.19 764.95 569.94 668.24 598.37 557.4 675.89 462.24 789.84 390.23 914.64 322.29 1016.81 274.1 1067.4 243.59 1046.73 213.07 962.41 201.68 840.6 212.08 719.17 226.55 629.3 266.19 591.44 324.15 607.08 367.99 669.75 394.81 754.11 371.52 835.87 284.23 904.69 136.22 939.88 -33.59 939.26 -148.09 907.91 -156.33 850.46 -38.64 779.05 123.92 696.3 225.6 614.95 167.12 541.6 -26.54 469.56 -217.24 408.54 -240.83 358.76 -76.09 310.54 130.43 271.23 171.69 240.71 -106.22 200.06 12.09 175.58 219.72 197.5 144.1 217.96 -27.66 249.07 -158.93 284.79 -170.47 309.17 -53.86 322.82 115.9 314.19 272.67 274.82 354.38 203.45 360.51 102.87 305.88 -10.65 232.11 -122.38 171.7 -207.43 119.55 -245.44 99.43 -224.96 104.79 -146.89 118.62 -37.24 144.18 78.38 174.69 162.72 205.2 183.41 239.22 139.01 282.93 48.63 335.11 -64.39 410.73 -160.98 515.75 -216.14 629.04 -222.21 753.06 -175.61 854.74 -91.43 895.66 16.06 857.78 125.45 741.01 220.95 611.23 298.34 530.77 350.02 574.06 379.49 836.65 388.86 857.71 370.97 614.5 374.02 667.91 378.68 881.34 395.61 1055.66 426.12Q1055.69 426.13 1055.69 426.13" opacity="0.50"></path><path d="M1021.69 553.89C991.79 582.06 804.08 618.16 619.03 659.82 575.23 699.69 693.32 741.37 868.45 779.72 981.83 810.02 953.23 829.19 812.3 831.05 631.82 818.04 503.26 783.89 465.14 729.94 514.49 671.19 609.38 608.38 700.93 555.72 774.25 532.18 799.87 542.92 785.49 594.84 742.69 683.12 684.53 794.91 628.13 907.47 566.61 994.48 519.12 1034.36 490.95 1012.73 462.78 936.66 455.28 826.3 463.67 711.62 466.96 617.82 473.87 564.05 467.86 555.76 433.43 591.69 361.43 655.6 244.69 728.92 109.73 803.73 -25.58 859.17 -111.85 888.35 -110.65 894.41 -15.48 874.03 135.66 834.58 247.27 780.01 250.6 718.2 116.58 656.66 -79.19 591.55 -213.31 532.81 -180.37 483.45 -6.2 434.07 175.79 394.66 205.69 366.49 -50.39 330.52 -26.05 318.97 227.18 339.01 245.29 351.74 133.78 367.18 -17.48 378.34 -126.44 374.38 -127.92 354.33 -35.3 311.36 114.8 245.27 260.78 156.44 364.66 52.3 420.29 -50.34 427.15 -139.51 408.66 -196.09 369.17 -208.46 335.74 -170.73 320.04 -87.82 304.27 15.97 310 120.63 338.16 196.72 366.32 218.36 415.58 184.21 484.47 108.08 553.29 6.38 637.96 -89.37 726.27 -157.02 793.58 -188.29 833.11 -173.78 820.91 -120.91 760.46 -38.93 654.92 57.26 541.72 152.93 485.99 243.81 520.85 318.39 659.12 374.81 839.72 416.36 976.5 443.58 979.07 462.09 846.07 472.55 662.97 482.11 572.87 495.36 660.1 506.82 865.29 525.72 1021.66 553.88Q1021.69 553.89 1021.69 553.89" opacity="0.58"></path><path d="M987.69 622.64C967.96 648.46 806.5 675.55 622.92 702.02 534.67 726.56 589.96 746.81 736.3 758.95 887.34 764.56 949.36 757.18 899.59 734.28 764.07 703.66 606.17 659.26 483.69 605.74 421.03 557.93 425.76 516.33 472.51 492.22 548.09 497.37 616.84 533.59 662.94 602.14 696.66 694.79 704.34 799.98 693.78 898.58 676.79 970.77 652.79 1000.88 626.97 978.73 601.15 910.66 574.74 811.85 543.03 705.49 504.9 611.31 450.25 546.19 371.79 517.6 280.94 527.43 169.67 566.87 54.29 623.1 -32.24 691.01 -74.04 752.4 -45.21 798.48 43.41 831.5 170.7 842.82 279.34 835.11 302.23 813.47 217.05 779.6 47.08 739.68 -118.18 693.82 -188.16 648.44 -109.87 607.67 63.73 565.76 219.96 530.94 239.69 505.12 7.11 471.5 -62.27 448.19 193.06 448.51 289.37 443.69 265.62 435.04 156.78 416.9 17.66 384.82 -75.51 336.44 -91.29 269.58 -32.02 189.67 78.23 97.66 200.54 2.87 320.82 -80.24 410.6 -142.85 468.47 -171.6 503.76 -161.96 520.74 -111.54 532.6 -27.33 538.33 69.05 551.49 162.63 577.31 230.72 603.13 252.88 640.38 228.01 683.34 165.8 720.17 77.16 750.18 -13.32 759.64 -87.06 746.52 -136.7 699.27 -149.76 618.79 -128.03 536.27 -77.04 463.07 -4.83 437.62 76.81 487.22 164.18 611 245.65 777 316.06 912.74 378.75 959.68 428.65 882.32 467.79 726.98 500.4 579.53 527.11 543.84 551.26 656.01 573.49 848.86 596.81 987.66 622.63Q987.69 622.64 987.69 622.64" opacity="0.55"></path><path d="M953.69 606C942.86 629.47 808.01 647.99 634.78 660.67 516.09 672.01 510.78 675.13 605.85 668.36 751.62 658.14 868.35 636.54 908.33 604.15 863.06 571.05 752.14 532.05 619.54 492.98 492.67 465.8 405.63 450.75 363.34 455.45 360.72 485.32 384.63 540.26 416.24 617.95 457.99 709 488.4 803.96 501.61 887.57 514 945.58 508.61 966.98 485.14 944.73 461.67 884.41 421.23 797.1 364.56 700.35 307.1 609.02 233.98 537.24 151.55 493.01 79.26 479.66 16.7 493.9 -16.84 527.95 -10.73 579.12 42.6 633.47 138.7 682.47 240.54 728.08 323.63 759.37 344.47 775.42 280.04 782.01 142.27 775.4 -20.71 759.2 -132.98 737.25 -141.03 710.71 -31.39 683.14 132.77 654.05 262.86 626.9 273.69 603.43 152 579.96 -20.32 561.27 -138.98 546.09 -143.42 529.4 -31.92 513.24 130.76 494.51 272.65 470.04 332.83 438.01 303.33 395.24 204.06 343.02 88.05 278.03 -0.12 201.66 -44.4 121.9 -29.73 39.71 27.97 -35.89 117.51 -94.39 214.43 -129.68 301.86 -133.55 386.3 -106.53 451.76 -48.12 499.65 34.14 543.45 121.83 575.92 204.38 599.4 264.72 622.87 286.98 636.24 270.35 636.71 221.4 633.09 146.86 610.34 65.25 566.58 -8.59 490.7 -86.03 396.15 -67.23 480.68 12.14 599.61 81.97 743.46 154.67 867.18 223.95 921.14 292.52 882.03 352.78 757.37 403.67 611.89 451.11 513.72 490.69 527.17 523.62 654.86 555.21 831.94 582.52 953.66 605.99Q953.69 606 953.69 606" opacity="0.96"></path><path d="M919.69 510.36C916.43 531.48 807.73 544.16 652.1 548.5 518.1 552.36 462.7 547.17 497.38 533.25 603.19 519.03 727.82 497.22 823.22 470.28 866.6 447.5 842.94 425.31 768.92 408.98 660.79 406.19 548.45 417.33 452.13 446.46 372.72 494.28 321.46 559.99 292.34 639.46 279.3 723.77 275.05 805.83 270.37 874.07 269.46 918.86 260.2 932.65 239.08 910.73 217.95 857.88 185.96 781.92 147.03 695.73 111.87 610.09 77.69 536.2 54.13 481.58 46.63 449.76 63.11 441.07 109.96 451.68 173.72 480.52 255.73 518.36 336.17 558.26 382.51 601.95 381.12 638.98 315.74 666.34 198.34 689.77 54.77 702.16 -66.51 704.47 -116.68 702.99 -73.3 693.99 52.54 679.5 200.01 663.78 304.43 644.85 307.69 623.72 202.48 602.6 48.16 580.28 -77.57 556.17 -122.68 530.81 -66.42 501.39 59.44 466.27 207.89 427.35 322.49 380.17 373.07 324.19 354.04 264.27 283.76 196.92 194.67 125.53 103.11 57.94 40.52 -4.94 14.23 -55.77 18.44 -88.39 51.34 -98.65 99.05 -82.32 159.65 -43.2 218.7 18.65 268.17 96.14 319.03 174.17 356.25 245.86 377.37 298.72 398.51 320.64 402.54 311.15 391.53 274.52 381.9 214.43 361.28 144.39 337.29 75.57 326.18 11.57 328.06 -35.18 356.39 -61.01 415.23 -68.15 508.13 -54.24 627.38 -23.77 744.16 20.25 839.5 72.76 880.56 128.1 851.99 187.6 756.35 244.2 623.39 295.03 512.99 345.56 468.73 389.18 521.95 425.16 655.83 460.65 814.42 489.22 919.66 510.35Q919.69 510.36 919.69 510.36" opacity="0.64"></path><path d="M885.69 372.39C888.62 391.16 804.78 401.58 672.06 404.33 492.69 405.27 519.89 380.11 667.87 363.27 759.66 358.14 811.96 357.61 819.32 365.41 786.43 384.94 722.55 416.99 644.76 462.88 556.53 520.39 475.51 588.77 408.32 663.49 346.6 737.05 299.64 804.58 264.95 857.76 233.21 890.55 208.78 897.89 190 876.73 171.22 831.07 158.99 766.15 155.31 691.17 154.59 613.56 167.39 541.73 196.57 482.12 231.22 437.69 281.31 410.75 340.6 400.21 389.45 405.75 426.37 422.41 434.66 445.39 402.68 475.97 328.11 505.99 216.78 531.9 95.12 558.47 -13.46 577.85 -74.53 589.1 -66.95 598.99 11.61 601.03 139.11 595.58 264.58 589.5 344.62 576.99 341.69 558.22 252.24 539.44 117.87 515.28 -6.3 485.95 -79.94 455.99 -74.87 419.8 0.14 377.36 120.91 333.58 248.21 283.27 348.8 227.76 406.87 172.91 414.19 115.93 382.27 60.74 319.37 13.14 249.19 -25.78 187.88 -50.87 133.32 -59.89 100.72 -49.8 88.58 -19.14 87.96 26.7 100.49 87.83 119.49 158.19 142.01 225.93 164.25 287.04 183.03 332.72 201.81 353.88 216.24 350.36 229.13 324.82 245.54 278.89 267.16 222.05 300.32 162.26 345 101.29 408.51 49.74 492 11.79 582.26 -14.55 679.4 -24.34 766.92 -19.26 823.47 -2.44 838.43 25.03 799.92 59.11 718.9 99.36 608.45 141.33 501.43 181.76 440.15 224.01 445.74 262.25 526.6 294.69 658 327.34 796.19 353.6 885.66 372.38Q885.69 372.39 885.69 372.39" opacity="0.40"></path><path d="M851.69 245C797.92 277.86 564.75 289.94 401.85 290.54 432.27 301.16 590.74 320.35 722.46 366.07 773 443.53 718.17 556.5 627.49 686.77 513.88 798.71 430.85 862.02 397.99 842.73 365.12 749.93 385.54 616.8 442.21 492.74 475.94 403.05 479.48 362.88 385.88 361.16 114.42 409.44 211.99 466.6 375.69 432.03 183.2 399.18 -20.62 339.99 -28.64 261.22 149.45 184.73 355.07 98.44 456.6 24.58 439.72 -16.76 359.52 -11.45 295.53 54.12 233.55 154.09 221.41 273.9 254.27 366.72 287.12 386.03 361.86 336.04 480.78 248.19 601.71 142 733.22 63.88 793.2 29.49 734.75 26.83 564 58.92 409.97 105.26 442.03 161.6 659.14 212.13 851.66 244.99Q851.69 245 851.69 245" opacity="0.35"></path><path d="M817.69 177.06C787.8 205.23 602.46 228.79 421.5 253.7 351.64 286.84 413.21 335.3 525.56 406.17 645.23 493.01 702.84 599.17 704 706.02 676.99 789.16 636.6 830.36 608.43 808.73 580.26 732.66 566.99 622.23 545.19 510.92 495.22 415.07 393.65 350.7 237.06 317.31 87.79 310.17 -3.64 315.78 45.56 318.96 205.88 327.99 379.8 321.72 409.69 293.56 253.35 265.39 60.76 217.99 -14.56 160.15 61.33 108.16 230.33 58.59 385.01 28.81 489.07 25.28 519.24 59.78 514.98 134.96 486.35 225.62 475.72 324.63 503.89 400.72 532.04 422.36 596.33 392.59 673.78 330.09 726.85 243.88 740.66 167.6 673.54 117.67 555.79 83.71 416.65 79.21 361.36 94.89 457.31 118.79 661.29 148.89 817.66 177.05Q817.69 177.06 817.69 177.06" opacity="0.54"></path><path d="M783.69 194.62C772.87 218.09 639.76 249.75 475.23 290.72 349.11 336.13 310.47 397.28 340.78 473.18 420.4 552.87 497.45 639.64 542.91 718.21 581.67 774.13 587.19 796.98 563.72 774.73 540.25 714.41 490.01 626.98 410.57 533.7 324.43 443.64 210.75 370.08 100.37 317.7 39.29 281.65 53.04 259.75 161.95 243.95 309.28 233.78 432.87 219.37 443.69 195.9 322 172.43 156.12 142.12 45.88 111.61 28.86 86.73 109.07 72 229.54 77.29 363.81 98.89 465.95 147.56 528.78 220.41 574.59 296.47 602.84 374.39 626.31 434.72 649.79 456.98 666.26 443.65 661.14 404.94 638.99 343.57 573.5 281.69 469.99 232.77 380.28 187.63 324.94 163.11 359.14 158.37 486.56 158.08 661.95 171.14 783.66 194.61Q783.69 194.62 783.69 194.62" opacity="0.20"></path><path d="M749.69 290.94C752.62 309.71 669.66 341.89 545.58 385.15 415.29 429.51 320.34 485.82 272.42 549.35 264.18 610.14 281.61 670.77 300.65 720.73 328.23 753.09 337.36 761.89 318.59 740.73 299.81 695.06 254.89 629.93 194.77 557.84 143.19 482.82 96.46 414.08 80.08 357.58 103.39 308.24 178.43 270.19 294.96 241.66 405.27 216.55 480.62 195.3 477.69 176.52 388.23 157.74 259.23 143.21 146.73 135.78 73.46 131.77 65.53 140.51 106.68 165.24 182.8 197.13 267.08 245.96 336.35 307.22 406.22 365.54 452.91 423.06 471.69 468.73 490.47 489.89 479.56 488.7 442.23 470.11 405.5 433.91 350.53 393.19 299.02 357.01 282.48 318.09 310.31 291.08 397.33 279.27 523.58 268.55 660.19 272.15 749.66 290.93Q749.69 290.94 749.69 290.94" opacity="0.12"></path><path d="M715.69 429.08C685.8 457.25 505.17 529.34 349.21 615.16 241.38 684.43 201.27 728.36 173.11 706.73 144.94 630.65 134.05 520.08 204.96 424.47 324.01 334.38 481.8 271.01 511.69 242.84 355.33 214.67 176.79 227.04 111.71 280.22 131.29 338.91 201.12 426.65 229.29 502.73 257.46 524.36 238.62 503.26 255.96 470.91 357.95 422.01 559.33 400.91 715.69 429.08Q715.69 429.08 715.69 429.08" opacity="0.11"></path><path d="M681.69 556.07C599.9 593.62 342.92 688.01 305.37 672.73 267.81 562.35 463.9 406.98 545.69 369.43 316.47 331.87 158.3 426.35 195.86 536.73 233.41 552.01 452.47 518.51 681.69 556.07Q681.69 556.07 681.69 556.07" opacity="0.08"></path></g></svg>"></circle><circle r="6.842105263157895" cx="755.5555555555557" cy="755.5555555555557" fill="hsl(300, 51%, 20%)" stroke="none" opacity="0.35"></circle><circle r="6.842105263157895" cx="800.0000000000001" cy="755.5555555555557" fill="hsl(300, 51%, 20%)" stroke="none" opacity="0.35"></circle><circle r="6.842105263157895" cx="0" cy="800.0000000000001" fill="hsl(300, 51%, 20%)" stroke="none" opacity="0.35"></circle><circle r="6.842105263157895" cx="44.44444444444444" cy="800.0000000000001" fill="hsl(300, 51%, 20%)" stroke="none" opacity="0.35"></circle><circle r="6.842105263157895" cx="88.88888888888889" cy="800.0000000000001" fill="hsl(300, 51%, 20%)" stroke="none" opacity="0.35"></circle><circle r="6.842105263157895" cx="133.33333333333331" cy="800.0000000000001" fill="hsl(300, 51%, 20%)" stroke="none" opacity="0.35"></circle><circle r="6.842105263157895" cx="177.77777777777777" cy="800.0000000000001" fill="hsl(300, 51%, 20%)" stroke="none" opacity="0.35"></circle><circle r="6.842105263157895" cx="222.22222222222223" cy="800.0000000000001" fill="hsl(300, 51%, 20%)" stroke="none" opacity="0.35"></circle><circle r="6.842105263157895" cx="266.6666666666667" cy="800.0000000000001" fill="hsl(300, 51%, 20%)" stroke="none" opacity="0.35"></circle><circle r="6.842105263157895" cx="311.11111111111114" cy="800.0000000000001" fill="hsl(300, 51%, 20%)" stroke="none" opacity="0.35"></circle><circle r="6.842105263157895" cx="355.5555555555556" cy="800.0000000000001" fill="hsl(300, 51%, 20%)" stroke="none" opacity="0.35"></circle><circle r="6.842105263157895" cx="400.00000000000006" cy="800.0000000000001" fill="hsl(300, 51%, 20%)" stroke="none" opacity="0.35"></circle><circle r="6.842105263157895" cx="444.4444444444445" cy="800.0000000000001" fill="hsl(300, 51%, 20%)" stroke="none" opacity="0.35"></circle><circle r="6.842105263157895" cx="488.88888888888897" cy="800.0000000000001" fill="hsl(300, 51%, 20%)" stroke="none" opacity="0.35"></circle><circle r="6.842105263157895" cx="533.3333333333334" cy="800.0000000000001" fill="hsl(300, 51%, 20%)" stroke="none" opacity="0.35"></circle><circle r="6.842105263157895" cx="577.7777777777778" cy="800.0000000000001" fill="hsl(300, 51%, 20%)" stroke="none" opacity="0.35"></circle><circle r="6.842105263157895" cx="622.2222222222223" cy="800.0000000000001" fill="hsl(300, 51%, 20%)" stroke="none" opacity="0.35"></circle><circle r="6.842105263157895" cx="666.6666666666667" cy="800.0000000000001" fill="hsl(300, 51%, 20%)" stroke="none" opacity="0.35"></circle><circle r="6.842105263157895" cx="711.1111111111112" cy="800.0000000000001" fill="hsl(300, 51%, 20%)" stroke="none" opacity="0.35"></circle><circle r="6.842105263157895" cx="755.5555555555557" cy="800.0000000000001" fill="hsl(300, 51%, 20%)" stroke="none" opacity="0.35"></circle><circle r="6.842105263157895" cx="800.0000000000001" cy="800.0000000000001" fill="hsl(300, 51%, 20%)" stroke="none" opacity="0.35"></circle></g></svg>
